<svg width="1002" height="999" viewBox="0 0 1002 999" fill="none" xmlns="http://www.w3.org/2000/svg">
<g opacity="0.2">
<path d="M277.224 1V588.96L1 699.247" stroke="#C5BCFF" stroke-linecap="round" stroke-linejoin="round"/>
<path d="M321.963 1V588.96L1 749.136" stroke="#C5BCFF" stroke-linecap="round" stroke-linejoin="round"/>
<path d="M366.701 1V588.96L1 832.26" stroke="#C5BCFF" stroke-linecap="round" stroke-linejoin="round"/>
<path d="M411.445 1V588.96L1.21509 998.228" stroke="#C5BCFF" stroke-linecap="round" stroke-linejoin="round"/>
<path d="M456.179 1V588.96L250.888 998.228" stroke="#C5BCFF" stroke-linecap="round" stroke-linejoin="round"/>
<path d="M500.92 1V588.96L500.57 998.228" stroke="#C5BCFF" stroke-linecap="round" stroke-linejoin="round"/>
<path d="M545.66 1V588.96L750.244 998.228" stroke="#C5BCFF" stroke-linecap="round" stroke-linejoin="round"/>
<path d="M590.398 1V588.96L999.921 998.228" stroke="#C5BCFF" stroke-linecap="round" stroke-linejoin="round"/>
<path d="M635.142 1V588.96L1001 832.642" stroke="#C5BCFF" stroke-linecap="round" stroke-linejoin="round"/>
<path d="M679.881 1V588.96L1001 749.349" stroke="#C5BCFF" stroke-linecap="round" stroke-linejoin="round"/>
<path d="M724.617 1V588.96L1001 699.386" stroke="#C5BCFF" stroke-linecap="round" stroke-linejoin="round"/>
<path d="M769.36 1V588.96L1001 666.08" stroke="#C5BCFF" stroke-linecap="round" stroke-linejoin="round"/>
<path d="M814.096 1V588.96L1001 642.294" stroke="#C5BCFF" stroke-linecap="round" stroke-linejoin="round"/>
<path d="M858.836 1V588.96L1001 624.455" stroke="#C5BCFF" stroke-linecap="round" stroke-linejoin="round"/>
<path d="M903.579 1V588.96L1001 610.58" stroke="#C5BCFF" stroke-linecap="round" stroke-linejoin="round"/>
<path d="M948.315 1V588.96L1001 599.484" stroke="#C5BCFF" stroke-linecap="round" stroke-linejoin="round"/>
<path d="M993.052 1V588.96L1001 590.4" stroke="#C5BCFF" stroke-linecap="round" stroke-linejoin="round"/>
<path d="M1 642.222L187.745 588.96V1" stroke="#C5BCFF" stroke-linecap="round" stroke-linejoin="round"/>
<path d="M232.483 1V588.96L1 665.984" stroke="#C5BCFF" stroke-linecap="round" stroke-linejoin="round"/>
<path d="M143.008 1V588.96L1 624.403" stroke="#C5BCFF" stroke-linecap="round" stroke-linejoin="round"/>
<path d="M98.2656 1V588.96L1.00171 610.536" stroke="#C5BCFF" stroke-linecap="round" stroke-linejoin="round"/>
<path d="M53.5272 1V588.96L1 599.445" stroke="#C5BCFF" stroke-linecap="round" stroke-linejoin="round"/>
<path d="M8.7844 1V588.96L1 590.373" stroke="#C5BCFF" stroke-linecap="round" stroke-linejoin="round"/>
<path d="M1 544.346H1001" stroke="#C5BCFF" stroke-linecap="round" stroke-linejoin="round"/>
<path d="M1 499.727H1001" stroke="#C5BCFF" stroke-linecap="round" stroke-linejoin="round"/>
<path d="M1 455.114H1001" stroke="#C5BCFF" stroke-linecap="round" stroke-linejoin="round"/>
<path d="M1 410.501H1001" stroke="#C5BCFF" stroke-linecap="round" stroke-linejoin="round"/>
<path d="M1 365.881H1001" stroke="#C5BCFF" stroke-linecap="round" stroke-linejoin="round"/>
<path d="M1 321.267H1001" stroke="#C5BCFF" stroke-linecap="round" stroke-linejoin="round"/>
<path d="M1 276.654H1001" stroke="#C5BCFF" stroke-linecap="round" stroke-linejoin="round"/>
<path d="M1 232.035H1001" stroke="#C5BCFF" stroke-linecap="round" stroke-linejoin="round"/>
<path d="M1 187.421H1001" stroke="#C5BCFF" stroke-linecap="round" stroke-linejoin="round"/>
<path d="M1 142.807H1001" stroke="#C5BCFF" stroke-linecap="round" stroke-linejoin="round"/>
<path d="M1 98.1881H1001" stroke="#C5BCFF" stroke-linecap="round" stroke-linejoin="round"/>
<path d="M1 53.5748H1001" stroke="#C5BCFF" stroke-linecap="round" stroke-linejoin="round"/>
<path d="M1 8.95668H1001" stroke="#C5BCFF" stroke-linecap="round" stroke-linejoin="round"/>
<path d="M1001 785.249H1" stroke="#C5BCFF" stroke-linecap="round" stroke-linejoin="round"/>
<path d="M1001 750.762H1" stroke="#C5BCFF" stroke-linecap="round" stroke-linejoin="round"/>
<path d="M1001 723.71H1" stroke="#C5BCFF" stroke-linecap="round" stroke-linejoin="round"/>
<path d="M1001 830.708H1" stroke="#C5BCFF" stroke-linecap="round" stroke-linejoin="round"/>
<path d="M1001 701.917H1" stroke="#C5BCFF" stroke-linecap="round" stroke-linejoin="round"/>
<path d="M1001 683.987H1" stroke="#C5BCFF" stroke-linecap="round" stroke-linejoin="round"/>
<path d="M1001 592.969H1" stroke="#C5BCFF" stroke-linecap="round" stroke-linejoin="round"/>
<path d="M1001 588.96H1" stroke="#C5BCFF" stroke-linecap="round" stroke-linejoin="round"/>
<path d="M1001 602.173H1" stroke="#C5BCFF" stroke-linecap="round" stroke-linejoin="round"/>
<path d="M1001 597.356H1" stroke="#C5BCFF" stroke-linecap="round" stroke-linejoin="round"/>
<path d="M1001 645.258H1" stroke="#C5BCFF" stroke-linecap="round" stroke-linejoin="round"/>
<path d="M1001 668.973H1" stroke="#C5BCFF" stroke-linecap="round" stroke-linejoin="round"/>
<path d="M1001 893.382H1" stroke="#C5BCFF" stroke-linecap="round" stroke-linejoin="round"/>
<path d="M1001 613.395H1" stroke="#C5BCFF" stroke-linecap="round" stroke-linejoin="round"/>
<path d="M1001 607.494H1" stroke="#C5BCFF" stroke-linecap="round" stroke-linejoin="round"/>
<path d="M1001 635.731H1" stroke="#C5BCFF" stroke-linecap="round" stroke-linejoin="round"/>
<path d="M1001 627.368H1" stroke="#C5BCFF" stroke-linecap="round" stroke-linejoin="round"/>
<path d="M1001 619.977H1" stroke="#C5BCFF" stroke-linecap="round" stroke-linejoin="round"/>
<path d="M1001 656.223H1" stroke="#C5BCFF" stroke-linecap="round" stroke-linejoin="round"/>
<path d="M999.924 998.227H1.21582" stroke="#C5BCFF" stroke-linecap="round" stroke-linejoin="round"/>
</g>
</svg>
